HIERARCHY
ROOT Hips
{
	OFFSET 0.00000 0.00000 0.00000
	CHANNELS 6 Xposition Yposition Zposition Zrotation Yrotation Xrotation 
	JOINT LHipJoint
	{
		OFFSET 0 0 0
		CHANNELS 3 Zrotation Yrotation Xrotation
		JOINT LeftUpLeg
		{
			OFFSET 1.58895 -1.83665 0.71753
			CHANNELS 3 Zrotation Yrotation Xrotation
			JOINT LeftLeg
			{
				OFFSET 2.50528 -6.88321 0.00000
				CHANNELS 3 Zrotation Yrotation Xrotation
				JOINT LeftFoot
				{
					OFFSET 2.63244 -7.23257 0.00000
					CHANNELS 3 Zrotation Yrotation Xrotation
					JOINT LeftToeBase
					{
						OFFSET 0.23691 -0.65090 1.72750
						CHANNELS 3 Zrotation Yrotation Xrotation
						End Site
						{
							OFFSET 0.00000 -0.00000 0.92561
						}
					}
				}
			}
		}
	}
	JOINT RHipJoint
	{
		OFFSET 0 0 0
		CHANNELS 3 Zrotation Yrotation Xrotation
		JOINT RightUpLeg
		{
			OFFSET -1.51435 -1.83665 0.71753
			CHANNELS 3 Zrotation Yrotation Xrotation
			JOINT RightLeg
			{
				OFFSET -2.54551 -6.99375 0.00000
				CHANNELS 3 Zrotation Yrotation Xrotation
				JOINT RightFoot
				{
					OFFSET -2.66027 -7.30903 0.00000
					CHANNELS 3 Zrotation Yrotation Xrotation
					JOINT RightToeBase
					{
						OFFSET -0.22981 -0.63138 2.03959
						CHANNELS 3 Zrotation Yrotation Xrotation
						End Site
						{
							OFFSET -0.00000 -0.00000 1.07060
						}
					}
				}
			}
		}
	}
	JOINT LowerBack
	{
		OFFSET 0 0 0
		CHANNELS 3 Zrotation Yrotation Xrotation
		JOINT Spine
		{
			OFFSET -0.02651 1.86275 -0.11152
			CHANNELS 3 Zrotation Yrotation Xrotation
			JOINT Spine1
			{
				OFFSET 0.01019 1.86224 0.04087
				CHANNELS 3 Zrotation Yrotation Xrotation
				JOINT Neck
				{
					OFFSET 0 0 0
					CHANNELS 3 Zrotation Yrotation Xrotation
					JOINT Neck1
					{
						OFFSET -0.01926 1.80512 0.08867
						CHANNELS 3 Zrotation Yrotation Xrotation
						JOINT Head
						{
							OFFSET 0.05516 1.76451 -0.38475
							CHANNELS 3 Zrotation Yrotation Xrotation
							End Site
							{
								OFFSET 0.01592 1.82587 -0.14001
							}
						}
					}
				}
				JOINT LeftShoulder
				{
					OFFSET 0 0 0
					CHANNELS 3 Zrotation Yrotation Xrotation
					JOINT LeftArm
					{
						OFFSET 3.47116 1.51376 0.14491
						CHANNELS 3 Zrotation Yrotation Xrotation
						JOINT LeftForeArm
						{
							OFFSET 4.78095 -0.00000 0.00000
							CHANNELS 3 Zrotation Yrotation Xrotation
							JOINT LeftHand
							{
								OFFSET 3.58615 -0.00000 -0.00000
								CHANNELS 3 Zrotation Yrotation Xrotation
								JOINT LeftFingerBase
								{
									OFFSET 0 0 0
									CHANNELS 3 Zrotation Yrotation Xrotation
									JOINT LeftHandIndex1
									{
										OFFSET 0.65981 -0.00000 0.00000
										CHANNELS 3 Zrotation Yrotation Xrotation
										End Site
										{
											OFFSET 0.53196 -0.00000 0.00000
										}
									}
								}
								JOINT LThumb
								{
									OFFSET 0 0 0
									CHANNELS 3 Zrotation Yrotation Xrotation
									End Site
									{
										OFFSET 0.54008 -0.00000 0.54008
									}
								}
							}
						}
					}
				}
				JOINT RightShoulder
				{
					OFFSET 0 0 0
					CHANNELS 3 Zrotation Yrotation Xrotation
					JOINT RightArm
					{
						OFFSET -3.31725 1.61216 0.35156
						CHANNELS 3 Zrotation Yrotation Xrotation
						JOINT RightForeArm
						{
							OFFSET -4.48913 -0.00000 0.00000
							CHANNELS 3 Zrotation Yrotation Xrotation
							JOINT RightHand
							{
								OFFSET -3.70510 -0.00000 0.00000
								CHANNELS 3 Zrotation Yrotation Xrotation
								JOINT RightFingerBase
								{
									OFFSET 0 0 0
									CHANNELS 3 Zrotation Yrotation Xrotation
									JOINT RightHandIndex1
									{
										OFFSET -0.44914 -0.00000 0.00000
										CHANNELS 3 Zrotation Yrotation Xrotation
										End Site
										{
											OFFSET -0.36211 -0.00000 0.00000
										}
									}
								}
								JOINT RThumb
								{
									OFFSET 0 0 0
									CHANNELS 3 Zrotation Yrotation Xrotation
									End Site
									{
										OFFSET -0.36763 -0.00000 0.36763
									}
								}
							}
						}
					}
				}
			}
		}
	}
}
MOTION
Frames: 15
Frame Time: .0083333
-0.6695 18.6865 5.6386 0 0 0 0 0 0 -21 0 0 0 0 0 0 0 0 0 0 0 0 0 0 21 0 0 0 0 0 0 0 0 0 0 0 0 0 0 0 0 0 0 0 0 0 0 -16 0 0 21 0 0 11 0 0 0 -8 0 0 0 0 0 0 0 0 0 0 0 0 0 0 0 0 0 0 0 0 8 0 0 0 0 0 0 0 0 0 0 0 0 0 0 0 0 0
-0.6695 18.6865 5.6386 -1.1541 -4.6287 2.2497 0.0000 0.0000 0.0000 -14.1524 -8.8520 -0.4150 1.1555 6.8247 19.1970 1.8019 9.8936 -30.5629 7.9269 -16.0653 -52.2991 0.0000 0.0000 0.0000 0.0000 0.0000 0.0000 0.0000 0.0000 0.0000 -0.0000 -0.0000 0.0000 -0.0000 -0.0000 0.0000 -0.4773 1.2953 -0.3893 0.1836 1.7265 -2.7001 0.4232 0.8751 -2.5701 -2.5127 -2.2357 -9.3127 3.1595 -3.5332 26.4383 1.1398 -1.5408 10.0193 -0.0000 0.0000 0.0000 -89.8672 13.9205 27.7843 20.4741 -31.2093 -5.7750 -0.0000 -0.0000 10.4695 2.2635 -27.2604 -1.0372 -7.1250 0.0000 -0.0000 -16.5208 3.6413 16.1357 -0.0000 0.0000 0.0000 90.9654 -20.0010 19.8622 -25.1306 36.3372 -8.3672 0.0000 0.0000 21.9298 -9.0466 -28.2759 4.3133 7.1250 -0.0000 -0.0000 23.5557 -56.9601 -7.1753
-0.6685 18.6865 5.6398 -1.1480 -4.6220 2.2833 0.0000 0.0000 0.0000 -14.1520 -8.8475 -0.4619 1.1559 6.8261 19.2011 1.7972 9.8448 -30.4993 7.8935 -16.0404 -52.1781 0.0000 0.0000 0.0000 0.0000 0.0000 0.0000 0.0000 0.0000 0.0000 -0.0000 -0.0000 0.0000 -0.0000 -0.0000 0.0000 -0.4941 1.2924 -0.4291 0.1885 1.7226 -2.7054 0.4385 0.8736 -2.5538 -2.5739 -2.2332 -9.3048 3.2202 -3.5340 26.4471 1.1717 -1.5404 10.0233 -0.0000 0.0000 0.0000 -89.8820 13.9254 27.7790 20.4811 -31.2176 -5.7786 -0.0000 -0.0000 10.4547 2.2666 -27.2160 -1.0371 -7.1250 0.0000 -0.0000 -16.5193 3.6836 16.1207 -0.0000 0.0000 0.0000 90.9540 -19.9902 19.8650 -25.1296 36.3362 -8.3666 0.0000 0.0000 21.9430 -9.0164 -28.3391 4.3075 7.1250 -0.0000 -0.0000 23.6306 -57.0113 -7.2297
-0.6672 18.6864 5.6423 -1.1303 -4.6335 2.3194 0.0000 0.0000 0.0000 -14.1811 -8.8735 -0.4792 1.1562 6.8268 19.2033 1.8004 9.8486 -30.5225 7.8767 -16.0278 -52.1172 0.0000 0.0000 0.0000 0.0000 0.0000 0.0000 0.0000 0.0000 0.0000 -0.0000 -0.0000 0.0000 -0.0000 -0.0000 0.0000 -0.5065 1.2938 -0.4844 0.1726 1.7243 -2.7156 0.4303 0.8745 -2.5331 -2.5074 -2.2222 -9.2890 3.1798 -3.5209 26.4381 1.1477 -1.5325 10.0144 -0.0000 -0.0000 0.0000 -89.8932 13.9264 27.7325 20.4614 -31.1942 -5.7684 -0.0000 -0.0000 10.4586 2.2773 -27.2083 -1.0417 -7.1250 0.0000 -0.0000 -16.5131 3.6901 16.1121 -0.0000 -0.0000 0.0000 90.9565 -19.9816 19.9017 -25.1186 36.3250 -8.3601 0.0000 0.0000 21.9082 -8.4274 -28.2657 4.0133 7.1250 -0.0000 -0.0000 24.1655 -56.8230 -7.2947
-0.6666 18.6874 5.6440 -1.1309 -4.6582 2.3514 0.0000 0.0000 0.0000 -14.1899 -8.9066 -0.4883 1.1563 6.8271 19.2041 1.8067 9.8964 -30.5951 7.8887 -16.0367 -52.1606 0.0000 0.0000 0.0000 0.0000 0.0000 0.0000 0.0000 0.0000 0.0000 -0.0000 -0.0000 0.0000 -0.0000 -0.0000 0.0000 -0.4962 1.3053 -0.5324 0.1561 1.7396 -2.7222 0.4086 0.8817 -2.5122 -2.4261 -2.2214 -9.2926 3.1232 -3.5210 26.4420 1.1138 -1.5308 10.0139 0.0000 0.0000 0.0000 -89.8980 13.9243 27.7021 20.4401 -31.1689 -5.7574 -0.0000 -0.0000 10.4730 2.3023 -27.2481 -1.0545 -7.1250 0.0000 -0.0000 -16.4984 3.6501 16.1091 0.0000 0.0000 0.0000 90.9868 -19.9536 19.8973 -25.0984 36.3044 -8.3481 0.0000 0.0000 21.8910 -6.5808 -28.0334 3.1035 7.1250 -0.0000 -0.0000 25.8219 -56.2386 -7.4673
-0.6664 18.6881 5.6452 -1.1588 -4.6753 2.3757 0.0000 0.0000 0.0000 -14.1622 -8.9240 -0.5005 1.1564 6.8275 19.2053 1.8099 9.9442 -30.6489 7.9111 -16.0535 -52.2417 0.0000 0.0000 0.0000 0.0000 0.0000 0.0000 0.0000 0.0000 0.0000 -0.0000 -0.0000 0.0000 -0.0000 -0.0000 0.0000 -0.4624 1.3170 -0.5591 0.1550 1.7556 -2.7245 0.3888 0.8889 -2.4987 -2.3955 -2.2264 -9.3146 3.1028 -3.5286 26.4478 1.1003 -1.5333 10.0196 -0.0000 0.0000 0.0000 -89.8951 13.9289 27.7034 20.4444 -31.1740 -5.7596 -0.0000 -0.0000 10.5029 2.2444 -27.3020 -1.0299 -7.1250 0.0000 -0.0000 -16.5316 3.6030 16.1594 -0.0000 0.0000 0.0000 91.0343 -19.9312 19.8427 -25.0920 36.2978 -8.3443 0.0000 0.0000 21.9124 -7.8406 -28.4249 3.7503 7.1250 -0.0000 -0.0000 24.8623 -56.8461 -7.5375
-0.6658 18.6876 5.6469 -1.1697 -4.6818 2.3856 0.0000 0.0000 0.0000 -14.1595 -8.9626 -0.4910 1.1569 6.8288 19.2092 1.8173 9.9757 -30.7171 7.9201 -16.0602 -52.2745 0.0000 0.0000 0.0000 0.0000 0.0000 0.0000 0.0000 0.0000 0.0000 -0.0000 -0.0000 0.0000 -0.0000 -0.0000 0.0000 -0.4519 1.3171 -0.5586 0.1607 1.7560 -2.7350 0.3887 0.8890 -2.5096 -2.4098 -2.2256 -9.3423 3.1098 -3.5274 26.4839 1.1052 -1.5328 10.0384 -0.0000 0.0000 0.0000 -89.9046 13.9658 27.7016 20.4618 -31.1948 -5.7687 -0.0000 -0.0000 10.5069 2.2105 -27.3450 -1.0158 -7.1250 0.0000 -0.0000 -16.5509 3.5643 16.1923 -0.0000 0.0000 0.0000 91.0316 -19.9413 19.8414 -25.0934 36.2993 -8.3451 0.0000 0.0000 21.9173 -7.0687 -28.3990 3.3752 7.1250 -0.0000 -0.0000 25.6065 -56.6645 -7.6691
-0.6652 18.6877 5.6481 -1.1628 -4.6831 2.4003 0.0000 0.0000 0.0000 -14.1740 -8.9960 -0.4927 1.1573 6.8298 19.2122 1.8212 9.9681 -30.7366 7.9118 -16.0540 -52.2445 0.0000 0.0000 0.0000 0.0000 0.0000 0.0000 0.0000 0.0000 0.0000 -0.0000 -0.0000 0.0000 -0.0000 -0.0000 0.0000 -0.4640 1.3109 -0.5698 0.1647 1.7476 -2.7504 0.3997 0.8852 -2.5196 -2.4616 -2.2189 -9.3452 3.1449 -3.5181 26.5224 1.1276 -1.5295 10.0543 0.0000 -0.0000 0.0000 -89.9268 14.0157 27.6709 20.4680 -31.2021 -5.7718 -0.0000 -0.0000 10.5231 2.2905 -27.4039 -1.0547 -7.1250 0.0000 -0.0000 -16.5043 3.5018 16.1624 0.0000 -0.0000 0.0000 91.0019 -19.9587 19.8747 -25.0960 36.3019 -8.3467 0.0000 0.0000 21.9096 -5.8982 -28.3910 2.8122 7.1250 -0.0000 -0.0000 26.7497 -56.4194 -7.8836
-0.6646 18.6883 5.6495 -1.1580 -4.6775 2.4103 0.0000 0.0000 0.0000 -14.1749 -8.9618 -0.5143 1.1573 6.8300 19.2128 1.8125 9.9255 -30.6520 7.9046 -16.0486 -52.2183 0.0000 0.0000 0.0000 0.0000 0.0000 0.0000 0.0000 0.0000 0.0000 -0.0000 -0.0000 0.0000 -0.0000 -0.0000 0.0000 -0.4538 1.3163 -0.5944 0.1537 1.7548 -2.7597 0.3832 0.8884 -2.5148 -2.4956 -2.2115 -9.3297 3.1812 -3.5110 26.5363 1.1473 -1.5255 10.0575 0.0000 0.0000 0.0000 -89.9349 14.0475 27.6466 20.4712 -31.2059 -5.7735 -0.0000 -0.0000 10.5662 2.3030 -27.4185 -1.0610 -7.1250 0.0000 -0.0000 -16.4970 3.4868 16.1593 0.0000 0.0000 0.0000 91.0303 -19.9481 19.8281 -25.0731 36.2786 -8.3331 0.0000 0.0000 21.9384 -5.3712 -28.4622 2.5656 7.1250 -0.0000 -0.0000 27.3169 -56.3759 -8.0393
-0.6637 18.6879 5.6509 -1.1619 -4.6803 2.4045 0.0000 0.0000 0.0000 -14.1754 -8.9527 -0.5005 1.1571 6.8294 19.2111 1.8098 9.9085 -30.6233 7.8797 -16.0301 -52.1283 0.0000 0.0000 0.0000 0.0000 0.0000 0.0000 0.0000 0.0000 0.0000 -0.0000 -0.0000 0.0000 -0.0000 -0.0000 0.0000 -0.4209 1.3293 -0.6007 0.1387 1.7722 -2.7640 0.3492 0.8962 -2.5144 -2.5181 -2.2093 -9.3110 3.2081 -3.5107 26.5394 1.1609 -1.5247 10.0559 0.0000 0.0000 0.0000 -89.9406 14.0594 27.6391 20.4626 -31.1956 -5.7690 -0.0000 -0.0000 10.5821 2.2472 -27.3906 -1.0342 -7.1250 0.0000 -0.0000 -16.5295 3.5179 16.1841 0.0000 0.0000 0.0000 91.0844 -19.9360 19.7544 -25.0450 36.2500 -8.3165 0.0000 0.0000 21.9962 -5.3335 -28.3188 2.5357 7.1250 -0.0000 -0.0000 27.2475 -56.2416 -7.9257
-0.6633 18.6875 5.6516 -1.1607 -4.6828 2.4057 0.0000 0.0000 0.0000 -14.1767 -8.9478 -0.4973 1.1564 6.8273 19.2047 1.8160 9.9182 -30.6688 7.8858 -16.0346 -52.1502 0.0000 0.0000 0.0000 0.0000 0.0000 0.0000 0.0000 0.0000 0.0000 -0.0000 -0.0000 0.0000 -0.0000 -0.0000 0.0000 -0.4115 1.3344 -0.6105 0.1307 1.7789 -2.7655 0.3358 0.8992 -2.5099 -2.5496 -2.2164 -9.3093 3.2228 -3.5189 26.5532 1.1706 -1.5299 10.0617 -0.0000 0.0000 0.0000 -89.9660 14.0623 27.5914 20.4474 -31.1776 -5.7612 -0.0000 -0.0000 10.6354 2.1884 -27.4013 -1.0076 -7.1250 0.0000 -0.0000 -16.5633 3.5121 16.2222 -0.0000 0.0000 0.0000 91.1235 -19.9431 19.7261 -25.0564 36.2615 -8.3232 0.0000 0.0000 22.0569 -4.8851 -28.3280 2.3224 7.1250 -0.0000 -0.0000 27.6901 -56.1598 -8.0125
-0.6636 18.6879 5.6523 -1.1449 -4.6779 2.4151 0.0000 0.0000 0.0000 -14.1845 -8.9196 -0.5189 1.1550 6.8233 19.1929 1.8179 9.9186 -30.6812 7.9165 -16.0575 -52.2615 0.0000 0.0000 0.0000 0.0000 0.0000 0.0000 0.0000 0.0000 0.0000 -0.0000 -0.0000 0.0000 -0.0000 -0.0000 0.0000 -0.4403 1.3322 -0.6321 0.1290 1.7758 -2.7673 0.3507 0.8983 -2.5004 -2.5729 -2.2178 -9.3230 3.2242 -3.5172 26.5801 1.1753 -1.5310 10.0746 -0.0000 -0.0000 0.0000 -90.0007 14.0841 27.5315 20.4579 -31.1900 -5.7666 -0.0000 -0.0000 10.6933 2.0847 -27.4379 -0.9610 -7.1250 0.0000 -0.0000 -16.6229 3.4851 16.2947 -0.0000 -0.0000 0.0000 91.1316 -19.9445 19.7495 -25.0633 36.2686 -8.3273 0.0000 0.0000 22.1017 -3.6280 -28.6266 1.7400 7.1250 -0.0000 -0.0000 29.1304 -56.1690 -8.4874
-0.6635 18.6883 5.6538 -1.1349 -4.6770 2.4218 0.0000 0.0000 0.0000 -14.1987 -8.9329 -0.5141 1.1535 6.8191 19.1805 1.8157 9.9057 -30.6582 7.9039 -16.0481 -52.2157 0.0000 0.0000 0.0000 0.0000 0.0000 0.0000 0.0000 0.0000 0.0000 -0.0000 -0.0000 0.0000 -0.0000 -0.0000 0.0000 -0.4754 1.3221 -0.6530 0.1431 1.7623 -2.7731 0.3855 0.8925 -2.4960 -2.6314 -2.1991 -9.3302 3.2574 -3.4882 26.6011 1.2004 -1.5194 10.0843 -0.0000 0.0000 0.0000 -90.0598 14.1103 27.4693 20.4663 -31.2000 -5.7710 -0.0000 -0.0000 10.6932 2.0177 -27.4477 -0.9304 -7.1250 0.0000 -0.0000 -16.6615 3.4809 16.3374 -0.0000 0.0000 0.0000 91.1014 -19.9595 19.7990 -25.0648 36.2702 -8.3282 0.0000 0.0000 22.1192 -4.5146 -28.5834 2.1634 7.1250 -0.0000 -0.0000 28.2405 -56.3095 -8.2959
-0.6625 18.6875 5.6551 -1.1384 -4.6749 2.4039 0.0000 0.0000 0.0000 -14.2070 -8.9563 -0.4754 1.1527 6.8167 19.1734 1.8181 9.8838 -30.6584 7.8772 -16.0282 -52.1190 0.0000 0.0000 0.0000 0.0000 0.0000 0.0000 0.0000 0.0000 0.0000 -0.0000 -0.0000 0.0000 -0.0000 -0.0000 0.0000 -0.4908 1.3112 -0.6485 0.1591 1.7479 -2.7726 0.4107 0.8859 -2.4989 -2.6482 -2.1720 -9.3291 3.2423 -3.4419 26.5947 1.2033 -1.5014 10.0802 0.0000 -0.0000 0.0000 -90.1244 14.1313 27.3989 20.4674 -31.2013 -5.7715 -0.0000 -0.0000 10.7164 2.0146 -27.4274 -0.9283 -7.1250 0.0000 -0.0000 -16.6634 3.5005 16.3332 0.0000 -0.0000 0.0000 91.0864 -19.9910 19.8272 -25.0914 36.2972 -8.3439 0.0000 0.0000 22.1003 -6.0102 -28.3553 2.8626 7.1250 -0.0000 -0.0000 26.6140 -56.4104 -7.8335
-0.6616 18.6870 5.6560 -1.1332 -4.6759 2.3870 0.0000 0.0000 0.0000 -14.2161 -8.9301 -0.4610 1.1523 6.8156 19.1703 1.8207 9.8718 -30.6666 7.8822 -16.0319 -52.1372 0.0000 0.0000 0.0000 0.0000 0.0000 0.0000 0.0000 0.0000 0.0000 -0.0000 -0.0000 0.0000 -0.0000 -0.0000 0.0000 -0.4919 1.3137 -0.6443 0.1511 1.7512 -2.7669 0.4030 0.8874 -2.4952 -2.6177 -2.1596 -9.3525 3.2189 -3.4237 26.5977 1.1917 -1.4923 10.0842 0.0000 0.0000 0.0000 -90.1322 14.1655 27.4006 20.4916 -31.2301 -5.7841 -0.0000 -0.0000 10.7434 2.0255 -27.4502 -0.9340 -7.1250 0.0000 -0.0000 -16.6570 3.4778 16.3335 0.0000 0.0000 0.0000 91.1059 -19.9939 19.8464 -25.1138 36.3201 -8.3572 0.0000 0.0000 22.0341 -2.8714 -28.6430 1.3773 7.1250 -0.0000 -0.0000 29.8707 -56.0319 -8.6290
